<svg width="32" height="32" viewBox="0 0 32 32" fill="none" xmlns="http://www.w3.org/2000/svg">
<g clip-path="url(#clip0_11251_106324)">
<path d="M8.74023 27.8466L14.5002 32.0016L16.0302 29.8816L10.6152 25.9766L8.74023 27.8466Z" fill="#F54A00"/>
<path d="M5.89482 19.2553L2.01982 23.1353C1.80982 23.3453 1.69482 23.6203 1.69482 23.9103C1.69482 24.2053 1.80982 24.4803 2.01982 24.6903L5.61982 28.2903C5.82482 28.4953 6.10482 28.6103 6.39482 28.6103C6.68982 28.6103 6.96482 28.4953 7.16982 28.2903L11.0448 24.4103L5.89482 19.2553ZM10.8248 7.95031L10.7548 7.94531L10.0698 9.61531L10.1798 9.64531C14.5548 10.8503 19.4548 15.7503 20.6648 20.1253L20.6948 20.2353L22.3648 19.5503L22.3598 19.4803C22.0598 14.7103 15.5898 8.24531 10.8248 7.95031Z" fill="#F54A00"/>
<path d="M9.84523 10.38L9.76023 10.36L6.36523 18.595L11.7052 23.935L19.9402 20.54L19.9202 20.455C18.8402 16.27 14.0352 11.47 9.84523 10.38ZM20.2552 10.65C20.4152 10.65 20.5652 10.59 20.6802 10.475L24.4902 6.665C24.7252 6.43 24.7252 6.05 24.4902 5.815C24.3752 5.7 24.2252 5.64 24.0652 5.64C23.9052 5.64 23.7552 5.7 23.6402 5.815L19.8302 9.625C19.7152 9.74 19.6552 9.89 19.6552 10.05C19.6552 10.21 19.7152 10.36 19.8302 10.475C19.9452 10.585 20.0952 10.65 20.2552 10.65ZM30.2852 11.73C30.2152 11.465 29.9752 11.285 29.7052 11.285C29.6552 11.285 29.6052 11.29 29.5552 11.305L23.5202 12.89C23.2002 12.975 23.0102 13.305 23.0952 13.62C23.1652 13.885 23.4002 14.065 23.6752 14.065C23.7252 14.065 23.7802 14.06 23.8302 14.045L29.8652 12.46C30.1802 12.375 30.3702 12.05 30.2852 11.73ZM16.6852 7.21C16.7352 7.225 16.7852 7.23 16.8402 7.23C17.1102 7.23 17.3502 7.045 17.4202 6.785L19.0052 0.75C19.0902 0.43 18.9002 0.1 18.5802 0.02C18.5252 0.005 18.4752 0 18.4252 0C18.1502 0 17.9152 0.185 17.8452 0.445L16.2602 6.48C16.1752 6.8 16.3652 7.125 16.6852 7.21Z" fill="#F54A00"/>
</g>
<defs>
<clipPath id="clip0_11251_106324">
<rect width="32" height="32" fill="white"/>
</clipPath>
</defs>
</svg>
