<svg width="91" height="74" viewBox="0 0 91 74" fill="none" xmlns="http://www.w3.org/2000/svg">
<path d="M90.6787 1.38512L84.9889 12.2031C84.6396 12.9199 84.1325 13.5425 83.508 14.0213C82.8835 14.5 82.159 14.8216 81.3924 14.9603L49.2446 21.983C48.4576 22.1695 48.2923 20.7585 48.2923 20.7585L48.0012 12.3653C47.9824 11.6527 48.1919 10.9537 48.5973 10.3762C49.0027 9.79866 49.5814 9.37481 50.244 9.17015L89.8287 0.0389537C89.8287 0.0389537 91.7411 -0.358407 90.6787 1.38512Z" fill="#347ABF"/>
<path d="M0.321146 1.39127L6.07054 12.7379C6.42238 13.458 6.93087 14.0838 7.55597 14.5658C8.18106 15.0478 8.90569 15.3729 9.67276 15.5155L41.786 21.9829C42.5725 22.1703 42.7377 20.753 42.7377 20.753L42.9972 12.9334C43.0266 12.2095 42.8221 11.4961 42.4162 10.906C42.0102 10.3159 41.4259 9.88284 40.7557 9.67518L1.17058 0.0391268C1.17058 0.0391268 -0.740644 -0.36 0.321146 1.39127Z" fill="#347ABF"/>
<path d="M73.6135 30.2745L78.7556 21.2898C78.7556 21.2898 79.6461 19.7149 78.0276 20.0456L51.3494 25.731C48.8016 26.0932 48.8094 29.1169 48.8094 29.1169L48.9642 30.9359C48.9642 30.9359 49.8316 36.0779 52.2709 35.4716L59.4342 33.8967L48.4299 54.3701C48.0988 55.226 47.9561 56.1452 48.0117 57.0631L48.0892 73.4576C48.0892 73.6623 48.0892 73.9222 48.3447 73.9852C48.4157 74.0049 48.4906 74.0049 48.5615 73.9852C48.6545 73.9852 48.8326 73.7726 48.8945 73.6938C49.0116 73.5482 49.1202 73.3957 49.2198 73.2371C49.3127 73.0796 49.4057 72.9615 49.4908 72.804L50.0871 71.804L50.8615 70.4968C51.1403 70.0244 51.4268 69.5519 51.7134 69.0794L52.5962 67.6069C52.8905 67.1266 53.177 66.6384 53.4635 66.158C53.7501 65.6777 53.9824 65.2919 54.2379 64.8666L54.8884 63.78L55.3453 62.9925L55.5544 62.6539L73.6135 30.2745Z" fill="#347ABF"/>
<path d="M17.3909 30.27L12.2483 21.2892C12.2483 21.2892 11.3512 19.715 12.9675 20.0456L39.6166 25.7284C42.1608 26.0905 42.1608 29.1129 42.1608 29.1129L41.9984 30.9311C41.9984 30.9311 41.14 36.0709 38.704 35.4648L31.5816 33.9142L42.5707 54.3787C42.9013 55.2342 43.0438 56.153 42.9883 57.0705L42.9187 73.4578C42.9187 73.6625 42.9187 73.9222 42.6558 73.9852C42.5849 74.0049 42.5101 74.0049 42.4392 73.9852C42.3464 73.9852 42.1608 73.7727 42.1067 73.694C41.9848 73.5523 41.8761 73.3995 41.7819 73.2374C41.6891 73.08 41.5963 72.962 41.5035 72.8045L40.8616 71.8128L40.0883 70.5062L39.2376 69.0895L38.356 67.6176C38.0622 67.1375 37.776 66.6495 37.4899 66.1693C37.2038 65.6892 36.9718 65.3035 36.7166 64.8785L36.067 63.7923L35.6107 63.0052L35.4019 62.7219L17.3909 30.27Z" fill="#347ABF"/>
</svg>
