<svg width="207" height="39" viewBox="0 0 207 39" fill="none" xmlns="http://www.w3.org/2000/svg">
<path d="M50.1078 23.1367H55.8758V16.0527H62.0638V11.8247H55.8758V7.56872H63.6318V3.11672H50.1078V23.1367ZM65.7412 23.1367H70.7532V8.49272H65.7412V23.1367ZM68.2332 7.09272C69.8012 7.09272 71.0052 6.00072 71.0052 4.51672C71.0052 3.03272 69.8012 1.91272 68.2332 1.91272C66.6652 1.91272 65.4892 3.03272 65.4892 4.51672C65.4892 6.00072 66.6652 7.09272 68.2332 7.09272ZM79.683 23.4727C80.859 23.4727 81.811 23.2207 82.455 23.0527V19.2447C82.007 19.4127 81.587 19.4967 81.027 19.4967C80.075 19.4967 79.543 19.0207 79.543 17.9567V11.9087H82.427V8.49272H79.543V5.44072H74.531V8.49272H72.767V11.9087H74.531V18.4327C74.531 21.8767 76.379 23.4727 79.683 23.4727ZM91.6578 23.4727C96.3898 23.4727 98.8818 21.0647 99.0218 17.3687H94.5138C94.3458 18.9647 93.3658 19.8047 91.9658 19.8047C90.0618 19.8047 89.0818 18.4887 89.0818 15.9407V15.7167C89.0818 13.2527 90.1178 11.9927 91.8818 11.9927C93.3378 11.9927 94.0098 12.7487 94.2338 14.1207H98.9378C98.6578 9.66872 95.3538 8.10072 91.7698 8.10072C87.4578 8.10072 83.9578 10.9007 83.9578 15.7727V15.9967C83.9578 20.9247 87.2898 23.4727 91.6578 23.4727ZM105.319 23.4727C107.671 23.4727 108.959 22.4927 109.659 21.4287V23.1367H114.531V13.6447C114.531 9.75272 111.955 8.10072 107.923 8.10072C103.919 8.10072 101.147 9.83672 100.923 13.3647H105.627C105.739 12.4407 106.243 11.6287 107.615 11.6287C109.211 11.6287 109.547 12.5527 109.547 13.9527V14.2887H108.147C103.275 14.2887 100.363 15.6327 100.363 19.0767C100.363 22.1847 102.687 23.4727 105.319 23.4727ZM107.055 20.0847C105.879 20.0847 105.319 19.5527 105.319 18.7127C105.319 17.5087 106.215 17.1167 108.231 17.1167H109.547V18.0127C109.547 19.2727 108.483 20.0847 107.055 20.0847ZM117.39 23.1367H122.402V16.1927C122.402 13.8407 124.082 12.8887 127.134 12.9727V8.29672C124.866 8.26872 123.326 9.22072 122.402 11.4047V8.49272H117.39V23.1367ZM135.464 23.4727C136.64 23.4727 137.592 23.2207 138.236 23.0527V19.2447C137.788 19.4127 137.368 19.4967 136.808 19.4967C135.856 19.4967 135.324 19.0207 135.324 17.9567V11.9087H138.208V8.49272H135.324V5.44072H130.312V8.49272H128.548V11.9087H130.312V18.4327C130.312 21.8767 132.16 23.4727 135.464 23.4727ZM143.183 23.4447C144.863 23.4447 146.123 22.1847 146.123 20.6167C146.123 19.0487 144.863 17.7887 143.183 17.7887C141.531 17.7887 140.327 19.0487 140.327 20.6167C140.327 22.1847 141.531 23.4447 143.183 23.4447ZM155.259 23.4727C159.991 23.4727 162.483 21.0647 162.623 17.3687H158.115C157.947 18.9647 156.967 19.8047 155.567 19.8047C153.663 19.8047 152.683 18.4887 152.683 15.9407V15.7167C152.683 13.2527 153.719 11.9927 155.483 11.9927C156.939 11.9927 157.611 12.7487 157.835 14.1207H162.539C162.259 9.66872 158.955 8.10072 155.371 8.10072C151.059 8.10072 147.559 10.9007 147.559 15.7727V15.9967C147.559 20.9247 150.891 23.4727 155.259 23.4727ZM171.92 19.7487C169.988 19.7487 169.008 18.3767 169.008 15.8567V15.6327C169.008 13.1687 170.044 11.8527 171.92 11.8527C173.824 11.8527 174.804 13.2247 174.804 15.6887V15.9127C174.804 18.3487 173.796 19.7487 171.92 19.7487ZM171.892 23.4727C176.4 23.4727 179.9 20.6167 179.9 15.8567V15.6327C179.9 10.9847 176.428 8.10072 171.92 8.10072C167.384 8.10072 163.884 11.0687 163.884 15.7727V15.9967C163.884 20.7287 167.384 23.4727 171.892 23.4727ZM182.086 23.1367H187.098V14.6527C187.098 13.0567 187.994 12.1887 189.338 12.1887C190.486 12.1887 191.214 12.9167 191.214 14.4007V23.1367H196.17V14.6527C196.17 13.0567 197.066 12.1887 198.41 12.1887C199.558 12.1887 200.286 12.9167 200.286 14.4007V23.1367H205.298V13.5607C205.298 9.89272 203.282 8.10072 200.51 8.10072C198.662 8.10072 196.926 8.82872 195.666 10.5367C194.966 8.94072 193.622 8.10072 191.69 8.10072C189.422 8.10072 187.882 9.33272 187.098 10.7327V8.49272H182.086V23.1367Z" fill="#002168"/>
<path d="M47.9107 0.704046L44.9305 6.20274C44.7476 6.56709 44.4819 6.88359 44.1549 7.12694C43.8278 7.37028 43.4483 7.53373 43.0467 7.60421L26.2085 11.1738C25.7963 11.2686 25.7098 10.5514 25.7098 10.5514L25.5572 6.28518C25.5474 5.92302 25.6572 5.5677 25.8695 5.27415C26.0818 4.9806 26.385 4.76516 26.732 4.66113L47.4655 0.0197999C47.4655 0.0197999 48.4671 -0.182176 47.9107 0.704046Z" fill="#002168"/>
<path d="M0.17026 0.752874L3.18342 6.49477C3.36781 6.85921 3.6343 7.17586 3.9619 7.41977C4.2895 7.66369 4.66927 7.8282 5.07127 7.90036L21.9013 11.1732C22.3134 11.268 22.4 10.5508 22.4 10.5508L22.536 6.5937C22.5514 6.22737 22.4443 5.86637 22.2315 5.56777C22.0188 5.26917 21.7125 5.05 21.3613 4.94491L0.615432 0.0686281C0.615432 0.0686281 -0.386205 -0.133348 0.17026 0.752874Z" fill="#002168"/>
<path d="M38.8424 15.9799L41.5794 11.2767C41.5794 11.2767 42.0534 10.4523 41.192 10.6255L26.9918 13.6015C25.6357 13.7911 25.6398 15.374 25.6398 15.374L25.7222 16.3261C25.7222 16.3261 26.1839 19.0178 27.4823 18.7004L31.2951 17.876L25.4378 28.5931C25.2616 29.0411 25.1856 29.5223 25.2152 30.0028L25.2564 38.5847C25.2564 38.6919 25.2564 38.8279 25.3925 38.8609C25.4302 38.8713 25.4701 38.8713 25.5079 38.8609C25.5573 38.8609 25.6522 38.7496 25.6851 38.7084C25.7474 38.6321 25.8053 38.5523 25.8583 38.4693C25.9077 38.3869 25.9572 38.3251 26.0025 38.2426L26.3199 37.7191L26.7321 37.0349C26.8805 36.7876 27.033 36.5402 27.1855 36.2929L27.6554 35.5221C27.8121 35.2707 27.9646 35.0151 28.1171 34.7637C28.2696 34.5122 28.3933 34.3103 28.5293 34.0877L28.8755 33.5188L29.1187 33.1066L29.23 32.9294L38.8424 15.9799Z" fill="#002168"/>
<path d="M9.33828 15.9799L6.59717 11.2767C6.59717 11.2767 6.11903 10.4523 6.98052 10.6255L21.1848 13.6015C22.5409 13.7911 22.5409 15.374 22.5409 15.374L22.4544 16.3261C22.4544 16.3261 21.9968 19.0178 20.6984 18.7004L16.9021 17.8884L22.7594 28.6055C22.9356 29.0535 23.0116 29.5347 22.982 30.0152L22.9449 38.5971C22.9449 38.7043 22.9449 38.8403 22.8047 38.8733C22.767 38.8836 22.7271 38.8836 22.6893 38.8733C22.6399 38.8733 22.5409 38.762 22.5121 38.7208C22.4471 38.6466 22.3892 38.5665 22.339 38.4817C22.2895 38.3992 22.24 38.3374 22.1906 38.255L21.8484 37.7356L21.4362 37.0514L20.9828 36.3094L20.5129 35.5386C20.3563 35.2872 20.2038 35.0316 20.0513 34.7802C19.8987 34.5287 19.7751 34.3267 19.6391 34.1042L19.2928 33.5353L19.0496 33.1231L18.9383 32.9747L9.33828 15.9799Z" fill="#002168"/>
<path d="M52.1209 38.8555H54.3044V32.9517H56.2652V31.277H50.1601V32.9517H52.1209V38.8555ZM56.7305 38.8555H58.6277V36.2269C58.6277 35.3365 59.2637 34.9761 60.419 35.0079V33.2379C59.5605 33.2273 58.9775 33.5876 58.6277 34.4144V33.3121H56.7305V38.8555ZM63.0872 38.9827C64.0093 38.9827 64.5499 38.5693 64.8467 37.9969V38.8555H66.7439V33.3121H64.8467V36.5024C64.8467 37.2126 64.4757 37.5518 63.9033 37.5518C63.3628 37.5518 63.119 37.2444 63.119 36.619V33.3121H61.2217V36.9264C61.2217 38.3255 62.0167 38.9827 63.0872 38.9827ZM70.0408 38.9827C71.5777 38.9827 72.5528 38.3891 72.5528 37.0748C72.5528 35.8877 71.8109 35.4849 70.274 35.2941C69.5956 35.2093 69.3412 35.1033 69.3412 34.8384C69.3412 34.584 69.5532 34.4038 69.9666 34.4038C70.4012 34.4038 70.6025 34.584 70.6767 34.9549H72.3938C72.2666 33.63 71.3127 33.1637 69.9454 33.1637C68.6629 33.1637 67.5712 33.7572 67.5712 34.9867C67.5712 36.1421 68.1965 36.5766 69.6804 36.7674C70.4436 36.8734 70.7085 37.0006 70.7085 37.2656C70.7085 37.5412 70.4966 37.7213 70.0302 37.7213C69.4896 37.7213 69.3094 37.4988 69.2458 37.096H67.497C67.5394 38.3255 68.4615 38.9827 70.0408 38.9827ZM75.5275 38.9827C75.9726 38.9827 76.333 38.8873 76.5768 38.8237V37.3822C76.4072 37.4458 76.2482 37.4776 76.0362 37.4776C75.6759 37.4776 75.4745 37.2974 75.4745 36.8946V34.6052H76.5662V33.3121H75.4745V32.1567H73.5772V33.3121H72.9095V34.6052H73.5772V37.0748C73.5772 38.3785 74.2768 38.9827 75.5275 38.9827ZM80.1559 38.9827C81.8305 38.9827 82.7951 38.2725 82.9647 37.0218H81.184C81.1098 37.3928 80.8448 37.679 80.2195 37.679C79.5411 37.679 79.1171 37.255 79.0641 36.5236H82.9647V36.0255C82.9647 34.0328 81.661 33.1637 80.1453 33.1637C78.4706 33.1637 77.1457 34.2872 77.1457 36.0679V36.1527C77.1457 37.9651 78.4176 38.9827 80.1559 38.9827ZM79.0853 35.4531C79.1807 34.7854 79.5729 34.4144 80.1453 34.4144C80.76 34.4144 81.0886 34.7854 81.1204 35.4531H79.0853ZM85.8334 38.9827C86.6708 38.9827 87.2855 38.5269 87.5611 37.9545V38.8555H89.4584V30.8742H87.5611V34.0964C87.2431 33.5346 86.7238 33.1637 85.8546 33.1637C84.5403 33.1637 83.5016 34.1706 83.5016 36.0573V36.1421C83.5016 38.0605 84.5509 38.9827 85.8334 38.9827ZM86.5012 37.5306C85.844 37.5306 85.4306 37.0536 85.4306 36.1209V36.0361C85.4306 35.0715 85.8122 34.5946 86.5224 34.5946C87.2219 34.5946 87.6141 35.0927 87.6141 36.0255V36.1103C87.6141 37.0536 87.1901 37.5306 86.5012 37.5306ZM92.8381 38.8555H96.2511C98.1271 38.8555 99.0069 38.1029 99.0069 36.7462V36.7038C99.0069 35.6545 98.4239 35.0927 97.4912 34.9337C98.3391 34.7112 98.7737 34.1494 98.7737 33.3015V33.2591C98.7737 32.0826 98.0105 31.277 96.2193 31.277H92.8381V38.8555ZM94.958 37.4034V35.6121H95.7953C96.5584 35.6121 96.8658 35.9089 96.8658 36.4812V36.5236C96.8658 37.0854 96.5478 37.4034 95.8589 37.4034H94.958ZM94.958 34.2872V32.7185H95.7847C96.4418 32.7185 96.7174 32.9517 96.7174 33.4711V33.5134C96.7174 34.054 96.463 34.2872 95.7847 34.2872H94.958ZM99.8623 38.8555H101.76V36.2269C101.76 35.3365 102.396 34.9761 103.551 35.0079V33.2379C102.692 33.2273 102.109 33.5876 101.76 34.4144V33.3121H99.8623V38.8555ZM105.851 38.9827C106.741 38.9827 107.228 38.6117 107.493 38.2089V38.8555H109.338V35.2623C109.338 33.789 108.363 33.1637 106.836 33.1637C105.321 33.1637 104.271 33.8208 104.187 35.1563H105.967C106.01 34.8066 106.2 34.4992 106.72 34.4992C107.324 34.4992 107.451 34.849 107.451 35.3789V35.5061H106.921C105.077 35.5061 103.975 36.0149 103.975 37.3186C103.975 38.4951 104.854 38.9827 105.851 38.9827ZM106.508 37.7002C106.063 37.7002 105.851 37.4988 105.851 37.1808C105.851 36.725 106.19 36.5766 106.953 36.5766H107.451V36.9158C107.451 37.3928 107.048 37.7002 106.508 37.7002ZM110.42 38.8555H112.317V35.7499C112.317 35.0397 112.699 34.7006 113.261 34.7006C113.812 34.7006 114.056 35.0079 114.056 35.6333V38.8555H115.953V35.2517C115.953 33.8314 115.211 33.1637 114.141 33.1637C113.218 33.1637 112.614 33.63 112.317 34.2024V33.3121H110.42V38.8555ZM119.091 38.9827C119.928 38.9827 120.543 38.5269 120.818 37.9545V38.8555H122.716V30.8742H120.818V34.0964C120.5 33.5346 119.981 33.1637 119.112 33.1637C117.798 33.1637 116.759 34.1706 116.759 36.0573V36.1421C116.759 38.0605 117.808 38.9827 119.091 38.9827ZM119.758 37.5306C119.101 37.5306 118.688 37.0536 118.688 36.1209V36.0361C118.688 35.0715 119.069 34.5946 119.78 34.5946C120.479 34.5946 120.871 35.0927 120.871 36.0255V36.1103C120.871 37.0536 120.447 37.5306 119.758 37.5306ZM126.008 38.9827C127.545 38.9827 128.52 38.3891 128.52 37.0748C128.52 35.8877 127.778 35.4849 126.241 35.2941C125.563 35.2093 125.308 35.1033 125.308 34.8384C125.308 34.584 125.52 34.4038 125.934 34.4038C126.368 34.4038 126.569 34.584 126.644 34.9549H128.361C128.234 33.63 127.28 33.1637 125.912 33.1637C124.63 33.1637 123.538 33.7572 123.538 34.9867C123.538 36.1421 124.163 36.5766 125.647 36.7674C126.41 36.8734 126.675 37.0006 126.675 37.2656C126.675 37.5412 126.463 37.7213 125.997 37.7213C125.457 37.7213 125.276 37.4988 125.213 37.096H123.464C123.506 38.3255 124.428 38.9827 126.008 38.9827ZM130.297 38.9721C130.933 38.9721 131.41 38.4951 131.41 37.9015C131.41 37.308 130.933 36.831 130.297 36.831C129.671 36.831 129.216 37.308 129.216 37.9015C129.216 38.4951 129.671 38.9721 130.297 38.9721ZM134.718 38.8555H138.13C140.007 38.8555 140.886 38.1029 140.886 36.7462V36.7038C140.886 35.6545 140.303 35.0927 139.371 34.9337C140.219 34.7112 140.653 34.1494 140.653 33.3015V33.2591C140.653 32.0826 139.89 31.277 138.099 31.277H134.718V38.8555ZM136.837 37.4034V35.6121H137.675C138.438 35.6121 138.745 35.9089 138.745 36.4812V36.5236C138.745 37.0854 138.427 37.4034 137.738 37.4034H136.837ZM136.837 34.2872V32.7185H137.664C138.321 32.7185 138.597 32.9517 138.597 33.4711V33.5134C138.597 34.054 138.342 34.2872 137.664 34.2872H136.837ZM144.507 38.9827C146.182 38.9827 147.146 38.2725 147.316 37.0218H145.535C145.461 37.3928 145.196 37.679 144.571 37.679C143.892 37.679 143.468 37.255 143.415 36.5236H147.316V36.0255C147.316 34.0328 146.012 33.1637 144.496 33.1637C142.822 33.1637 141.497 34.2872 141.497 36.0679V36.1527C141.497 37.9651 142.769 38.9827 144.507 38.9827ZM143.436 35.4531C143.532 34.7854 143.924 34.4144 144.496 34.4144C145.111 34.4144 145.44 34.7854 145.471 35.4531H143.436ZM150.333 38.9827C150.778 38.9827 151.138 38.8873 151.382 38.8237V37.3822C151.213 37.4458 151.054 37.4776 150.842 37.4776C150.481 37.4776 150.28 37.2974 150.28 36.8946V34.6052H151.372V33.3121H150.28V32.1567H148.383V33.3121H147.715V34.6052H148.383V37.0748C148.383 38.3785 149.082 38.9827 150.333 38.9827ZM154.453 38.9827C154.898 38.9827 155.258 38.8873 155.502 38.8237V37.3822C155.332 37.4458 155.173 37.4776 154.961 37.4776C154.601 37.4776 154.4 37.2974 154.4 36.8946V34.6052H155.491V33.3121H154.4V32.1567H152.502V33.3121H151.834V34.6052H152.502V37.0748C152.502 38.3785 153.202 38.9827 154.453 38.9827ZM159.081 38.9827C160.756 38.9827 161.72 38.2725 161.89 37.0218H160.109C160.035 37.3928 159.77 37.679 159.144 37.679C158.466 37.679 158.042 37.255 157.989 36.5236H161.89V36.0255C161.89 34.0328 160.586 33.1637 159.07 33.1637C157.396 33.1637 156.071 34.2872 156.071 36.0679V36.1527C156.071 37.9651 157.343 38.9827 159.081 38.9827ZM158.01 35.4531C158.106 34.7854 158.498 34.4144 159.07 34.4144C159.685 34.4144 160.014 34.7854 160.045 35.4531H158.01ZM162.702 38.8555H164.599V36.2269C164.599 35.3365 165.235 34.9761 166.391 35.0079V33.2379C165.532 33.2273 164.949 33.5876 164.599 34.4144V33.3121H162.702V38.8555ZM169.496 38.8555H171.68V35.8665H174.171V38.8555H176.343V31.277H174.171V34.1706H171.68V31.277H169.496V38.8555ZM180.3 38.9827C181.975 38.9827 182.939 38.2725 183.109 37.0218H181.328C181.254 37.3928 180.989 37.679 180.364 37.679C179.685 37.679 179.261 37.255 179.208 36.5236H183.109V36.0255C183.109 34.0328 181.805 33.1637 180.289 33.1637C178.615 33.1637 177.29 34.2872 177.29 36.0679V36.1527C177.29 37.9651 178.562 38.9827 180.3 38.9827ZM179.23 35.4531C179.325 34.7854 179.717 34.4144 180.289 34.4144C180.904 34.4144 181.233 34.7854 181.265 35.4531H179.23ZM185.531 38.9827C186.422 38.9827 186.909 38.6117 187.174 38.2089V38.8555H189.018V35.2623C189.018 33.789 188.043 33.1637 186.517 33.1637C185.001 33.1637 183.952 33.8208 183.867 35.1563H185.648C185.69 34.8066 185.881 34.4992 186.4 34.4992C187.005 34.4992 187.132 34.849 187.132 35.3789V35.5061H186.602C184.757 35.5061 183.655 36.0149 183.655 37.3186C183.655 38.4951 184.535 38.9827 185.531 38.9827ZM186.188 37.7002C185.743 37.7002 185.531 37.4988 185.531 37.1808C185.531 36.725 185.87 36.5766 186.634 36.5766H187.132V36.9158C187.132 37.3928 186.729 37.7002 186.188 37.7002ZM190.154 38.8555H192.04V30.8742H190.154V38.8555ZM195.421 38.9827C195.866 38.9827 196.227 38.8873 196.47 38.8237V37.3822C196.301 37.4458 196.142 37.4776 195.93 37.4776C195.569 37.4776 195.368 37.2974 195.368 36.8946V34.6052H196.46V33.3121H195.368V32.1567H193.471V33.3121H192.803V34.6052H193.471V37.0748C193.471 38.3785 194.17 38.9827 195.421 38.9827ZM197.336 38.8555H199.233V35.7499C199.233 35.0397 199.615 34.7006 200.177 34.7006C200.728 34.7006 200.972 35.0079 200.972 35.6333V38.8555H202.869V35.2517C202.869 33.8314 202.127 33.1637 201.056 33.1637C200.134 33.1637 199.53 33.63 199.233 34.2024V30.8742H197.336V38.8555ZM204.957 38.9721C205.593 38.9721 206.07 38.4951 206.07 37.9015C206.07 37.308 205.593 36.831 204.957 36.831C204.332 36.831 203.876 37.308 203.876 37.9015C203.876 38.4951 204.332 38.9721 204.957 38.9721Z" fill="#002168"/>
</svg>
